# xmcd
#
# Track frame offsets: 
#        180
#        12469
#        24489
#        35993
#        46865
#        59039
#        71779
#        84956
#        95697
#        109968
#        123171
#        135150
#        147307
#        159261
#        171817
#        182817
#        194689
#        206710
#
# Disc length: 2926 seconds
#
# Revision: 2
# Processed by: cddbd v1.5.2PL0 Copyright (c) Steve Scherf et al.
# Submitted via: ExactAudioCopyFreeDBPlugin 1.0
#
DISCID=070b6c12
DTITLE=Various Artist - Western Swing:  Texas, 1928-1944
DYEAR=1994
DGENRE=Country
TTITLE0=Bob Wills and His Texas Playboys - Twin Guitar Special
TTITLE1=W. Lee O'Daniel and His Hillbilly Boys - Lonesome Road Blues
TTITLE2=Shelly Lee Alley and the Alley Cats - Try it Once Again
TTITLE3=The Light Crust Doughboys - Pussy Pussy Pussy
TTITLE4=Jimmie Revard and His Oklahoma Playboys - Oh! Swing It
TTITLE5=Hank Penny and His Radio Cowboys - Chill Tonic
TTITLE6=Cliff Bruner and His Boys - Truck Driver's Blues
TTITLE7=Adolph Hofner and His Texans - Brown Eyed Sweet
TTITLE8=Buddy Jones - Settle Down Blues
TTITLE9=The Modern Moutaineers - Pipeliner's Blues
TTITLE10=Ted Daffan's Texans - Blue Steel Blues
TTITLE11=The Hi-Flyers - Whatcha Gonna Do
TTITLE12=The Hi-Flyers - Juke Box Jump
TTITLE13=The Sons of the West - Sally's Got a Wooden Leg
TTITLE14=The Sons of the West - Panhandle Shuffle
TTITLE15=Cliff Bruner's Texas Wanderers - Draft Board Blues
TTITLE16=Bob Wills and His Texas Playboys - Little Liza Jane
TTITLE17=Spade Cooley - Shame on You
EXTD=
EXTT0=
EXTT1=
EXTT2=
EXTT3=
EXTT4=
EXTT5=
EXTT6=
EXTT7=
EXTT8=
EXTT9=
EXTT10=
EXTT11=
EXTT12=
EXTT13=
EXTT14=
EXTT15=
EXTT16=
EXTT17=
PLAYORDER=
